<svg xmlns="http://www.w3.org/2000/svg" width="850" height="564" viewBox="0 0 850 564">
  <defs>
    <filter id="shadow-blur" x="-10%" y="-10%" width="120%" height="120%">
      <feGaussianBlur stdDeviation="3"/>
    </filter>
    <filter id="edge-glow" x="-20%" y="-20%" width="140%" height="140%">
      <feGaussianBlur stdDeviation="2" result="blur"/>
      <feMerge>
        <feMergeNode in="blur"/>
        <feMergeNode in="SourceGraphic"/>
      </feMerge>
    </filter>
    <filter id="text-glow" x="-20%" y="-20%" width="140%" height="140%">
      <feGaussianBlur stdDeviation="1.5" result="blur"/>
      <feMerge>
        <feMergeNode in="blur"/>
        <feMergeNode in="SourceGraphic"/>
      </feMerge>
    </filter>
    <filter id="radar-glow" x="-30%" y="-30%" width="160%" height="160%">
      <feGaussianBlur stdDeviation="4" result="blur"/>
      <feMerge>
        <feMergeNode in="blur"/>
        <feMergeNode in="SourceGraphic"/>
      </feMerge>
    </filter>
  </defs>

  <!-- Background -->
  <rect x="0.5" y="0.5" width="849" height="563" rx="12" ry="12"
        fill="#0A1020" stroke="#1c3050" stroke-width="1"/>

  <!-- Background grid -->
  <circle cx="40" cy="40" r="0.6" fill="#162340" opacity="0.12"/>
  <circle cx="40" cy="80" r="0.6" fill="#162340" opacity="0.12"/>
  <circle cx="40" cy="120" r="0.6" fill="#162340" opacity="0.12"/>
  <circle cx="40" cy="160" r="0.6" fill="#162340" opacity="0.12"/>
  <circle cx="40" cy="200" r="0.6" fill="#162340" opacity="0.12"/>
  <circle cx="40" cy="240" r="0.6" fill="#162340" opacity="0.12"/>
  <circle cx="40" cy="280" r="0.6" fill="#162340" opacity="0.12"/>
  <circle cx="40" cy="320" r="0.6" fill="#162340" opacity="0.12"/>
  <circle cx="40" cy="360" r="0.6" fill="#162340" opacity="0.12"/>
  <circle cx="40" cy="400" r="0.6" fill="#162340" opacity="0.12"/>
  <circle cx="40" cy="440" r="0.6" fill="#162340" opacity="0.12"/>
  <circle cx="40" cy="480" r="0.6" fill="#162340" opacity="0.12"/>
  <circle cx="40" cy="520" r="0.6" fill="#162340" opacity="0.12"/>
  <circle cx="40" cy="560" r="0.6" fill="#162340" opacity="0.12"/>
  <circle cx="100" cy="40" r="0.6" fill="#162340" opacity="0.12"/>
  <circle cx="100" cy="80" r="0.6" fill="#162340" opacity="0.12"/>
  <circle cx="100" cy="120" r="0.6" fill="#162340" opacity="0.12"/>
  <circle cx="100" cy="160" r="0.6" fill="#162340" opacity="0.12"/>
  <circle cx="100" cy="200" r="0.6" fill="#162340" opacity="0.12"/>
  <circle cx="100" cy="240" r="0.6" fill="#162340" opacity="0.12"/>
  <circle cx="100" cy="280" r="0.6" fill="#162340" opacity="0.12"/>
  <circle cx="100" cy="320" r="0.6" fill="#162340" opacity="0.12"/>
  <circle cx="100" cy="360" r="0.6" fill="#162340" opacity="0.12"/>
  <circle cx="100" cy="400" r="0.6" fill="#162340" opacity="0.12"/>
  <circle cx="100" cy="440" r="0.6" fill="#162340" opacity="0.12"/>
  <circle cx="100" cy="480" r="0.6" fill="#162340" opacity="0.12"/>
  <circle cx="100" cy="520" r="0.6" fill="#162340" opacity="0.12"/>
  <circle cx="100" cy="560" r="0.6" fill="#162340" opacity="0.12"/>
  <circle cx="160" cy="40" r="0.6" fill="#162340" opacity="0.12"/>
  <circle cx="160" cy="80" r="0.6" fill="#162340" opacity="0.12"/>
  <circle cx="160" cy="120" r="0.6" fill="#162340" opacity="0.12"/>
  <circle cx="160" cy="160" r="0.6" fill="#162340" opacity="0.12"/>
  <circle cx="160" cy="200" r="0.6" fill="#162340" opacity="0.12"/>
  <circle cx="160" cy="240" r="0.6" fill="#162340" opacity="0.12"/>
  <circle cx="160" cy="280" r="0.6" fill="#162340" opacity="0.12"/>
  <circle cx="160" cy="320" r="0.6" fill="#162340" opacity="0.12"/>
  <circle cx="160" cy="360" r="0.6" fill="#162340" opacity="0.12"/>
  <circle cx="160" cy="400" r="0.6" fill="#162340" opacity="0.12"/>
  <circle cx="160" cy="440" r="0.6" fill="#162340" opacity="0.12"/>
  <circle cx="160" cy="480" r="0.6" fill="#162340" opacity="0.12"/>
  <circle cx="160" cy="520" r="0.6" fill="#162340" opacity="0.12"/>
  <circle cx="160" cy="560" r="0.6" fill="#162340" opacity="0.12"/>
  <circle cx="220" cy="40" r="0.6" fill="#162340" opacity="0.12"/>
  <circle cx="220" cy="80" r="0.6" fill="#162340" opacity="0.12"/>
  <circle cx="220" cy="120" r="0.6" fill="#162340" opacity="0.12"/>
  <circle cx="220" cy="160" r="0.6" fill="#162340" opacity="0.12"/>
  <circle cx="220" cy="200" r="0.6" fill="#162340" opacity="0.12"/>
  <circle cx="220" cy="240" r="0.6" fill="#162340" opacity="0.12"/>
  <circle cx="220" cy="280" r="0.6" fill="#162340" opacity="0.12"/>
  <circle cx="220" cy="320" r="0.6" fill="#162340" opacity="0.12"/>
  <circle cx="220" cy="360" r="0.6" fill="#162340" opacity="0.12"/>
  <circle cx="220" cy="400" r="0.6" fill="#162340" opacity="0.12"/>
  <circle cx="220" cy="440" r="0.6" fill="#162340" opacity="0.12"/>
  <circle cx="220" cy="480" r="0.6" fill="#162340" opacity="0.12"/>
  <circle cx="220" cy="520" r="0.6" fill="#162340" opacity="0.12"/>
  <circle cx="220" cy="560" r="0.6" fill="#162340" opacity="0.12"/>
  <circle cx="280" cy="40" r="0.6" fill="#162340" opacity="0.12"/>
  <circle cx="280" cy="80" r="0.6" fill="#162340" opacity="0.12"/>
  <circle cx="280" cy="120" r="0.6" fill="#162340" opacity="0.12"/>
  <circle cx="280" cy="160" r="0.6" fill="#162340" opacity="0.12"/>
  <circle cx="280" cy="200" r="0.6" fill="#162340" opacity="0.12"/>
  <circle cx="280" cy="240" r="0.6" fill="#162340" opacity="0.12"/>
  <circle cx="280" cy="280" r="0.6" fill="#162340" opacity="0.12"/>
  <circle cx="280" cy="320" r="0.6" fill="#162340" opacity="0.12"/>
  <circle cx="280" cy="360" r="0.6" fill="#162340" opacity="0.12"/>
  <circle cx="280" cy="400" r="0.6" fill="#162340" opacity="0.12"/>
  <circle cx="280" cy="440" r="0.6" fill="#162340" opacity="0.12"/>
  <circle cx="280" cy="480" r="0.6" fill="#162340" opacity="0.12"/>
  <circle cx="280" cy="520" r="0.6" fill="#162340" opacity="0.12"/>
  <circle cx="280" cy="560" r="0.6" fill="#162340" opacity="0.12"/>
  <circle cx="340" cy="40" r="0.6" fill="#162340" opacity="0.12"/>
  <circle cx="340" cy="80" r="0.6" fill="#162340" opacity="0.12"/>
  <circle cx="340" cy="120" r="0.6" fill="#162340" opacity="0.12"/>
  <circle cx="340" cy="160" r="0.6" fill="#162340" opacity="0.12"/>
  <circle cx="340" cy="200" r="0.6" fill="#162340" opacity="0.12"/>
  <circle cx="340" cy="240" r="0.6" fill="#162340" opacity="0.12"/>
  <circle cx="340" cy="280" r="0.6" fill="#162340" opacity="0.12"/>
  <circle cx="340" cy="320" r="0.6" fill="#162340" opacity="0.12"/>
  <circle cx="340" cy="360" r="0.6" fill="#162340" opacity="0.12"/>
  <circle cx="340" cy="400" r="0.6" fill="#162340" opacity="0.12"/>
  <circle cx="340" cy="440" r="0.6" fill="#162340" opacity="0.12"/>
  <circle cx="340" cy="480" r="0.6" fill="#162340" opacity="0.12"/>
  <circle cx="340" cy="520" r="0.6" fill="#162340" opacity="0.12"/>
  <circle cx="340" cy="560" r="0.6" fill="#162340" opacity="0.12"/>
  <circle cx="400" cy="40" r="0.6" fill="#162340" opacity="0.12"/>
  <circle cx="400" cy="80" r="0.6" fill="#162340" opacity="0.12"/>
  <circle cx="400" cy="120" r="0.6" fill="#162340" opacity="0.12"/>
  <circle cx="400" cy="160" r="0.6" fill="#162340" opacity="0.12"/>
  <circle cx="400" cy="200" r="0.6" fill="#162340" opacity="0.12"/>
  <circle cx="400" cy="240" r="0.6" fill="#162340" opacity="0.12"/>
  <circle cx="400" cy="280" r="0.6" fill="#162340" opacity="0.12"/>
  <circle cx="400" cy="320" r="0.6" fill="#162340" opacity="0.12"/>
  <circle cx="400" cy="360" r="0.6" fill="#162340" opacity="0.12"/>
  <circle cx="400" cy="400" r="0.6" fill="#162340" opacity="0.12"/>
  <circle cx="400" cy="440" r="0.6" fill="#162340" opacity="0.12"/>
  <circle cx="400" cy="480" r="0.6" fill="#162340" opacity="0.12"/>
  <circle cx="400" cy="520" r="0.6" fill="#162340" opacity="0.12"/>
  <circle cx="400" cy="560" r="0.6" fill="#162340" opacity="0.12"/>
  <circle cx="460" cy="40" r="0.6" fill="#162340" opacity="0.12"/>
  <circle cx="460" cy="80" r="0.6" fill="#162340" opacity="0.12"/>
  <circle cx="460" cy="120" r="0.6" fill="#162340" opacity="0.12"/>
  <circle cx="460" cy="160" r="0.6" fill="#162340" opacity="0.12"/>
  <circle cx="460" cy="200" r="0.6" fill="#162340" opacity="0.12"/>
  <circle cx="460" cy="240" r="0.6" fill="#162340" opacity="0.12"/>
  <circle cx="460" cy="280" r="0.6" fill="#162340" opacity="0.12"/>
  <circle cx="460" cy="320" r="0.6" fill="#162340" opacity="0.12"/>
  <circle cx="460" cy="360" r="0.6" fill="#162340" opacity="0.12"/>
  <circle cx="460" cy="400" r="0.6" fill="#162340" opacity="0.12"/>
  <circle cx="460" cy="440" r="0.6" fill="#162340" opacity="0.12"/>
  <circle cx="460" cy="480" r="0.6" fill="#162340" opacity="0.12"/>
  <circle cx="460" cy="520" r="0.6" fill="#162340" opacity="0.12"/>
  <circle cx="460" cy="560" r="0.6" fill="#162340" opacity="0.12"/>
  <circle cx="520" cy="40" r="0.6" fill="#162340" opacity="0.12"/>
  <circle cx="520" cy="80" r="0.6" fill="#162340" opacity="0.12"/>
  <circle cx="520" cy="120" r="0.6" fill="#162340" opacity="0.12"/>
  <circle cx="520" cy="160" r="0.6" fill="#162340" opacity="0.12"/>
  <circle cx="520" cy="200" r="0.6" fill="#162340" opacity="0.12"/>
  <circle cx="520" cy="240" r="0.6" fill="#162340" opacity="0.12"/>
  <circle cx="520" cy="280" r="0.6" fill="#162340" opacity="0.12"/>
  <circle cx="520" cy="320" r="0.6" fill="#162340" opacity="0.12"/>
  <circle cx="520" cy="360" r="0.6" fill="#162340" opacity="0.12"/>
  <circle cx="520" cy="400" r="0.6" fill="#162340" opacity="0.12"/>
  <circle cx="520" cy="440" r="0.6" fill="#162340" opacity="0.12"/>
  <circle cx="520" cy="480" r="0.6" fill="#162340" opacity="0.12"/>
  <circle cx="520" cy="520" r="0.6" fill="#162340" opacity="0.12"/>
  <circle cx="520" cy="560" r="0.6" fill="#162340" opacity="0.12"/>
  <circle cx="580" cy="40" r="0.6" fill="#162340" opacity="0.12"/>
  <circle cx="580" cy="80" r="0.6" fill="#162340" opacity="0.12"/>
  <circle cx="580" cy="120" r="0.6" fill="#162340" opacity="0.12"/>
  <circle cx="580" cy="160" r="0.6" fill="#162340" opacity="0.12"/>
  <circle cx="580" cy="200" r="0.6" fill="#162340" opacity="0.12"/>
  <circle cx="580" cy="240" r="0.6" fill="#162340" opacity="0.12"/>
  <circle cx="580" cy="280" r="0.6" fill="#162340" opacity="0.12"/>
  <circle cx="580" cy="320" r="0.6" fill="#162340" opacity="0.12"/>
  <circle cx="580" cy="360" r="0.6" fill="#162340" opacity="0.12"/>
  <circle cx="580" cy="400" r="0.6" fill="#162340" opacity="0.12"/>
  <circle cx="580" cy="440" r="0.6" fill="#162340" opacity="0.12"/>
  <circle cx="580" cy="480" r="0.6" fill="#162340" opacity="0.12"/>
  <circle cx="580" cy="520" r="0.6" fill="#162340" opacity="0.12"/>
  <circle cx="580" cy="560" r="0.6" fill="#162340" opacity="0.12"/>
  <circle cx="640" cy="40" r="0.6" fill="#162340" opacity="0.12"/>
  <circle cx="640" cy="80" r="0.6" fill="#162340" opacity="0.12"/>
  <circle cx="640" cy="120" r="0.6" fill="#162340" opacity="0.12"/>
  <circle cx="640" cy="160" r="0.6" fill="#162340" opacity="0.12"/>
  <circle cx="640" cy="200" r="0.6" fill="#162340" opacity="0.12"/>
  <circle cx="640" cy="240" r="0.6" fill="#162340" opacity="0.12"/>
  <circle cx="640" cy="280" r="0.6" fill="#162340" opacity="0.12"/>
  <circle cx="640" cy="320" r="0.6" fill="#162340" opacity="0.12"/>
  <circle cx="640" cy="360" r="0.6" fill="#162340" opacity="0.12"/>
  <circle cx="640" cy="400" r="0.6" fill="#162340" opacity="0.12"/>
  <circle cx="640" cy="440" r="0.6" fill="#162340" opacity="0.12"/>
  <circle cx="640" cy="480" r="0.6" fill="#162340" opacity="0.12"/>
  <circle cx="640" cy="520" r="0.6" fill="#162340" opacity="0.12"/>
  <circle cx="640" cy="560" r="0.6" fill="#162340" opacity="0.12"/>
  <circle cx="700" cy="40" r="0.6" fill="#162340" opacity="0.12"/>
  <circle cx="700" cy="80" r="0.6" fill="#162340" opacity="0.12"/>
  <circle cx="700" cy="120" r="0.6" fill="#162340" opacity="0.12"/>
  <circle cx="700" cy="160" r="0.6" fill="#162340" opacity="0.12"/>
  <circle cx="700" cy="200" r="0.6" fill="#162340" opacity="0.12"/>
  <circle cx="700" cy="240" r="0.6" fill="#162340" opacity="0.12"/>
  <circle cx="700" cy="280" r="0.6" fill="#162340" opacity="0.12"/>
  <circle cx="700" cy="320" r="0.6" fill="#162340" opacity="0.12"/>
  <circle cx="700" cy="360" r="0.6" fill="#162340" opacity="0.12"/>
  <circle cx="700" cy="400" r="0.6" fill="#162340" opacity="0.12"/>
  <circle cx="700" cy="440" r="0.6" fill="#162340" opacity="0.12"/>
  <circle cx="700" cy="480" r="0.6" fill="#162340" opacity="0.12"/>
  <circle cx="700" cy="520" r="0.6" fill="#162340" opacity="0.12"/>
  <circle cx="700" cy="560" r="0.6" fill="#162340" opacity="0.12"/>
  <circle cx="760" cy="40" r="0.6" fill="#162340" opacity="0.12"/>
  <circle cx="760" cy="80" r="0.6" fill="#162340" opacity="0.12"/>
  <circle cx="760" cy="120" r="0.6" fill="#162340" opacity="0.12"/>
  <circle cx="760" cy="160" r="0.6" fill="#162340" opacity="0.12"/>
  <circle cx="760" cy="200" r="0.6" fill="#162340" opacity="0.12"/>
  <circle cx="760" cy="240" r="0.6" fill="#162340" opacity="0.12"/>
  <circle cx="760" cy="280" r="0.6" fill="#162340" opacity="0.12"/>
  <circle cx="760" cy="320" r="0.6" fill="#162340" opacity="0.12"/>
  <circle cx="760" cy="360" r="0.6" fill="#162340" opacity="0.12"/>
  <circle cx="760" cy="400" r="0.6" fill="#162340" opacity="0.12"/>
  <circle cx="760" cy="440" r="0.6" fill="#162340" opacity="0.12"/>
  <circle cx="760" cy="480" r="0.6" fill="#162340" opacity="0.12"/>
  <circle cx="760" cy="520" r="0.6" fill="#162340" opacity="0.12"/>
  <circle cx="760" cy="560" r="0.6" fill="#162340" opacity="0.12"/>
  <circle cx="820" cy="40" r="0.6" fill="#162340" opacity="0.12"/>
  <circle cx="820" cy="80" r="0.6" fill="#162340" opacity="0.12"/>
  <circle cx="820" cy="120" r="0.6" fill="#162340" opacity="0.12"/>
  <circle cx="820" cy="160" r="0.6" fill="#162340" opacity="0.12"/>
  <circle cx="820" cy="200" r="0.6" fill="#162340" opacity="0.12"/>
  <circle cx="820" cy="240" r="0.6" fill="#162340" opacity="0.12"/>
  <circle cx="820" cy="280" r="0.6" fill="#162340" opacity="0.12"/>
  <circle cx="820" cy="320" r="0.6" fill="#162340" opacity="0.12"/>
  <circle cx="820" cy="360" r="0.6" fill="#162340" opacity="0.12"/>
  <circle cx="820" cy="400" r="0.6" fill="#162340" opacity="0.12"/>
  <circle cx="820" cy="440" r="0.6" fill="#162340" opacity="0.12"/>
  <circle cx="820" cy="480" r="0.6" fill="#162340" opacity="0.12"/>
  <circle cx="820" cy="520" r="0.6" fill="#162340" opacity="0.12"/>
  <circle cx="820" cy="560" r="0.6" fill="#162340" opacity="0.12"/>

  <!-- HUD micro elements -->
  <g opacity="0.4">    <polyline points="6,18 6,6 18,6" fill="none" stroke="#1c3050" stroke-width="1"/>    <polyline points="832,6 844,6 844,18" fill="none" stroke="#1c3050" stroke-width="1"/>    <polyline points="6,546 6,558 18,558" fill="none" stroke="#1c3050" stroke-width="1"/>    <polyline points="832,558 844,558 844,546" fill="none" stroke="#1c3050" stroke-width="1"/>  </g>
  <text x="830" y="16" fill="#5a7088" font-size="7" font-family="monospace" text-anchor="end" opacity="0.3">SYS::DATA_LK_v2.4</text>
  <rect x="6" y="6" width="838" height="1" fill="#e0f0ff" opacity="0.03"><animateTransform attributeName="transform" type="translate" from="0 0" to="0 552" dur="8s" repeatCount="indefinite"/></rect>

  <!-- Left title -->
  <text x="30" y="40" fill="#5a7088" font-size="10" font-family="monospace" letter-spacing="2.5">STACK LAYERS</text>

  <!-- Vertical divider -->
  <line x1="425" y1="24" x2="425" y2="540" stroke="#1c3050" stroke-width="0.8" opacity="0.5"/>

  <!-- Right title -->
  <text x="460" y="40" fill="#5a7088" font-size="10" font-family="monospace" letter-spacing="2.5">CORE COMPETENCIES</text>

  <!-- Connections (behind cubes) -->
  <g>    <line x1="220" y1="167" x2="220" y2="191" stroke="#00E5FF" stroke-width="0.8" stroke-dasharray="3,4" opacity="0.35"/>    <circle cx="220" cy="179.0" r="4" fill="#0A1020" stroke="#00E5FF" stroke-width="1" opacity="0.8">      <animate attributeName="opacity" values="0.5;1;0.5" dur="2s" begin="0.0s" repeatCount="indefinite"/>    </circle>    <circle cx="220" cy="179.0" r="1.5" fill="#00E5FF" opacity="0.9"/>  </g>
  <g>    <line x1="220" y1="286" x2="220" y2="310" stroke="#FF7A30" stroke-width="0.8" stroke-dasharray="3,4" opacity="0.35"/>    <circle cx="220" cy="298.0" r="4" fill="#0A1020" stroke="#FF7A30" stroke-width="1" opacity="0.8">      <animate attributeName="opacity" values="0.5;1;0.5" dur="2s" begin="0.4s" repeatCount="indefinite"/>    </circle>    <circle cx="220" cy="298.0" r="1.5" fill="#FF7A30" opacity="0.9"/>  </g>
  <g>    <line x1="220" y1="405" x2="220" y2="429" stroke="#29FF87" stroke-width="0.8" stroke-dasharray="3,4" opacity="0.35"/>    <circle cx="220" cy="417.0" r="4" fill="#0A1020" stroke="#29FF87" stroke-width="1" opacity="0.8">      <animate attributeName="opacity" values="0.5;1;0.5" dur="2s" begin="0.8s" repeatCount="indefinite"/>    </circle>    <circle cx="220" cy="417.0" r="1.5" fill="#29FF87" opacity="0.9"/>  </g>

  <!-- Cubes -->
  <g opacity="0"><animate attributeName="opacity" from="0" to="1" dur="0.5s" begin="0.0s" fill="freeze"/><animateTransform attributeName="transform" type="translate" from="0 10" to="0 0" dur="0.5s" begin="0.0s" fill="freeze"/>
    <rect x="62.0" y="169" width="316" height="6" rx="2" fill="#002226" opacity="0.18" filter="url(#shadow-blur)"/>
    <path d="M 380.0 72.0 L 386.0 64.0 L 386.0 159.0 L 380.0 167.0 Z" fill="#005b66" opacity="0.7"/>
    <path d="M 66.0 72.0 L 378.0 72.0 L 384.0 64.0 L 68.0 64.0 Z" fill="#00ffff" opacity="0.85"/>
    <line x1="66.0" y1="72" x2="374.0" y2="72" stroke="#00E5FF" stroke-width="1.2" opacity="0.9" filter="url(#edge-glow)"/>
    <rect x="60.0" y="72.0" width="320" height="95" rx="5" ry="5" fill="#0D1832" stroke="#00E5FF" stroke-width="1" opacity="0.92"/>
    <rect x="62.0" y="74.0" width="316" height="91" rx="4" ry="4" fill="#0A1020" opacity="0.55"/>
    <text x="220" y="94" text-anchor="middle" fill="#00E5FF" font-size="12" font-weight="bold" font-family="monospace" filter="url(#text-glow)">Languages</text>
    <rect x="80.0" y="104.0" width="90" height="16" rx="6" ry="6" fill="#00E5FF" opacity="0.10" stroke="#00E5FF" stroke-width="0.5" stroke-opacity="0.3">      <animate attributeName="opacity" values="0.10;0.18;0.10" dur="3s" begin="0.0s" repeatCount="indefinite"/>    </rect>
    <text x="125.0" y="115.0" text-anchor="middle" fill="#8da9c4" font-size="7.5" font-family="monospace">Python</text>
    <rect x="175.0" y="104.0" width="90" height="16" rx="6" ry="6" fill="#00E5FF" opacity="0.10" stroke="#00E5FF" stroke-width="0.5" stroke-opacity="0.3">      <animate attributeName="opacity" values="0.10;0.18;0.10" dur="3s" begin="0.06s" repeatCount="indefinite"/>    </rect>
    <text x="220.0" y="115.0" text-anchor="middle" fill="#8da9c4" font-size="7.5" font-family="monospace">SQL</text>
    <rect x="270.0" y="104.0" width="90" height="16" rx="6" ry="6" fill="#00E5FF" opacity="0.10" stroke="#00E5FF" stroke-width="0.5" stroke-opacity="0.3">      <animate attributeName="opacity" values="0.10;0.18;0.10" dur="3s" begin="0.12s" repeatCount="indefinite"/>    </rect>
    <text x="315.0" y="115.0" text-anchor="middle" fill="#8da9c4" font-size="7.5" font-family="monospace">PySpark</text>
    <rect x="80.0" y="123.0" width="90" height="16" rx="6" ry="6" fill="#00E5FF" opacity="0.10" stroke="#00E5FF" stroke-width="0.5" stroke-opacity="0.3">      <animate attributeName="opacity" values="0.10;0.18;0.10" dur="3s" begin="0.18s" repeatCount="indefinite"/>    </rect>
    <text x="125.0" y="134.0" text-anchor="middle" fill="#8da9c4" font-size="7.5" font-family="monospace">Java</text>
    <rect x="175.0" y="123.0" width="90" height="16" rx="6" ry="6" fill="#00E5FF" opacity="0.10" stroke="#00E5FF" stroke-width="0.5" stroke-opacity="0.3">      <animate attributeName="opacity" values="0.10;0.18;0.10" dur="3s" begin="0.24s" repeatCount="indefinite"/>    </rect>
    <text x="220.0" y="134.0" text-anchor="middle" fill="#8da9c4" font-size="7.5" font-family="monospace">C++</text>
    <rect x="60.0" y="72.0" width="320" height="1.5" fill="#00E5FF" opacity="0.12"><animateTransform attributeName="transform" type="translate" from="0 0" to="0 95" dur="3.5s" begin="0.3s" repeatCount="indefinite"/></rect>
  </g>
  <g opacity="0"><animate attributeName="opacity" from="0" to="1" dur="0.5s" begin="0.3s" fill="freeze"/><animateTransform attributeName="transform" type="translate" from="0 10" to="0 0" dur="0.5s" begin="0.3s" fill="freeze"/>
    <rect x="62.0" y="288" width="316" height="6" rx="2" fill="#261207" opacity="0.18" filter="url(#shadow-blur)"/>
    <path d="M 380.0 191.0 L 386.0 183.0 L 386.0 278.0 L 380.0 286.0 Z" fill="#663013" opacity="0.7"/>
    <path d="M 66.0 191.0 L 378.0 191.0 L 384.0 183.0 L 68.0 183.0 Z" fill="#ffb748" opacity="0.85"/>
    <line x1="66.0" y1="191" x2="374.0" y2="191" stroke="#FF7A30" stroke-width="1.2" opacity="0.9" filter="url(#edge-glow)"/>
    <rect x="60.0" y="191.0" width="320" height="95" rx="5" ry="5" fill="#0D1832" stroke="#FF7A30" stroke-width="1" opacity="0.92"/>
    <rect x="62.0" y="193.0" width="316" height="91" rx="4" ry="4" fill="#0A1020" opacity="0.55"/>
    <text x="220" y="213" text-anchor="middle" fill="#FF7A30" font-size="12" font-weight="bold" font-family="monospace" filter="url(#text-glow)">Cloud &amp; Data Platforms</text>
    <rect x="80.0" y="223.0" width="90" height="16" rx="6" ry="6" fill="#FF7A30" opacity="0.10" stroke="#FF7A30" stroke-width="0.5" stroke-opacity="0.3">      <animate attributeName="opacity" values="0.10;0.18;0.10" dur="3s" begin="0.3s" repeatCount="indefinite"/>    </rect>
    <text x="125.0" y="234.0" text-anchor="middle" fill="#8da9c4" font-size="7.5" font-family="monospace">Azure</text>
    <rect x="175.0" y="223.0" width="90" height="16" rx="6" ry="6" fill="#FF7A30" opacity="0.10" stroke="#FF7A30" stroke-width="0.5" stroke-opacity="0.3">      <animate attributeName="opacity" values="0.10;0.18;0.10" dur="3s" begin="0.36s" repeatCount="indefinite"/>    </rect>
    <text x="220.0" y="234.0" text-anchor="middle" fill="#8da9c4" font-size="7.5" font-family="monospace">AWS</text>
    <rect x="270.0" y="223.0" width="90" height="16" rx="6" ry="6" fill="#FF7A30" opacity="0.10" stroke="#FF7A30" stroke-width="0.5" stroke-opacity="0.3">      <animate attributeName="opacity" values="0.10;0.18;0.10" dur="3s" begin="0.42s" repeatCount="indefinite"/>    </rect>
    <text x="315.0" y="234.0" text-anchor="middle" fill="#8da9c4" font-size="7.5" font-family="monospace">Databricks</text>
    <rect x="60.0" y="191.0" width="320" height="1.5" fill="#FF7A30" opacity="0.12"><animateTransform attributeName="transform" type="translate" from="0 0" to="0 95" dur="3.5s" begin="0.6s" repeatCount="indefinite"/></rect>
  </g>
  <g opacity="0"><animate attributeName="opacity" from="0" to="1" dur="0.5s" begin="0.6s" fill="freeze"/><animateTransform attributeName="transform" type="translate" from="0 10" to="0 0" dur="0.5s" begin="0.6s" fill="freeze"/>
    <rect x="62.0" y="407" width="316" height="6" rx="2" fill="#062614" opacity="0.18" filter="url(#shadow-blur)"/>
    <path d="M 380.0 310.0 L 386.0 302.0 L 386.0 397.0 L 380.0 405.0 Z" fill="#106636" opacity="0.7"/>
    <path d="M 66.0 310.0 L 378.0 310.0 L 384.0 302.0 L 68.0 302.0 Z" fill="#3dffca" opacity="0.85"/>
    <line x1="66.0" y1="310" x2="374.0" y2="310" stroke="#29FF87" stroke-width="1.2" opacity="0.9" filter="url(#edge-glow)"/>
    <rect x="60.0" y="310.0" width="320" height="95" rx="5" ry="5" fill="#0D1832" stroke="#29FF87" stroke-width="1" opacity="0.92"/>
    <rect x="62.0" y="312.0" width="316" height="91" rx="4" ry="4" fill="#0A1020" opacity="0.55"/>
    <text x="220" y="332" text-anchor="middle" fill="#29FF87" font-size="12" font-weight="bold" font-family="monospace" filter="url(#text-glow)">Databases &amp; Modeling</text>
    <rect x="80.0" y="342.0" width="90" height="16" rx="6" ry="6" fill="#29FF87" opacity="0.10" stroke="#29FF87" stroke-width="0.5" stroke-opacity="0.3">      <animate attributeName="opacity" values="0.10;0.18;0.10" dur="3s" begin="0.6s" repeatCount="indefinite"/>    </rect>
    <text x="125.0" y="353.0" text-anchor="middle" fill="#8da9c4" font-size="7.5" font-family="monospace">PostgreSQL</text>
    <rect x="175.0" y="342.0" width="90" height="16" rx="6" ry="6" fill="#29FF87" opacity="0.10" stroke="#29FF87" stroke-width="0.5" stroke-opacity="0.3">      <animate attributeName="opacity" values="0.10;0.18;0.10" dur="3s" begin="0.6599999999999999s" repeatCount="indefinite"/>    </rect>
    <text x="220.0" y="353.0" text-anchor="middle" fill="#8da9c4" font-size="7.5" font-family="monospace">Delta Lake</text>
    <rect x="270.0" y="342.0" width="90" height="16" rx="6" ry="6" fill="#29FF87" opacity="0.10" stroke="#29FF87" stroke-width="0.5" stroke-opacity="0.3">      <animate attributeName="opacity" values="0.10;0.18;0.10" dur="3s" begin="0.72s" repeatCount="indefinite"/>    </rect>
    <text x="315.0" y="353.0" text-anchor="middle" fill="#8da9c4" font-size="7.5" font-family="monospace">Data Modeling</text>
    <rect x="80.0" y="361.0" width="90" height="16" rx="6" ry="6" fill="#29FF87" opacity="0.10" stroke="#29FF87" stroke-width="0.5" stroke-opacity="0.3">      <animate attributeName="opacity" values="0.10;0.18;0.10" dur="3s" begin="0.78s" repeatCount="indefinite"/>    </rect>
    <text x="125.0" y="372.0" text-anchor="middle" fill="#8da9c4" font-size="7.5" font-family="monospace">Star Schema</text>
    <rect x="175.0" y="361.0" width="90" height="16" rx="6" ry="6" fill="#29FF87" opacity="0.10" stroke="#29FF87" stroke-width="0.5" stroke-opacity="0.3">      <animate attributeName="opacity" values="0.10;0.18;0.10" dur="3s" begin="0.84s" repeatCount="indefinite"/>    </rect>
    <text x="220.0" y="372.0" text-anchor="middle" fill="#8da9c4" font-size="7.5" font-family="monospace">Snowflake Schema</text>
    <rect x="270.0" y="361.0" width="90" height="16" rx="6" ry="6" fill="#29FF87" opacity="0.10" stroke="#29FF87" stroke-width="0.5" stroke-opacity="0.3">      <animate attributeName="opacity" values="0.10;0.18;0.10" dur="3s" begin="0.8999999999999999s" repeatCount="indefinite"/>    </rect>
    <text x="315.0" y="372.0" text-anchor="middle" fill="#8da9c4" font-size="7.5" font-family="monospace">SQL Optimization</text>
    <rect x="60.0" y="310.0" width="320" height="1.5" fill="#29FF87" opacity="0.12"><animateTransform attributeName="transform" type="translate" from="0 0" to="0 95" dur="3.5s" begin="0.8999999999999999s" repeatCount="indefinite"/></rect>
  </g>
  <g opacity="0"><animate attributeName="opacity" from="0" to="1" dur="0.5s" begin="0.8999999999999999s" fill="freeze"/><animateTransform attributeName="transform" type="translate" from="0 10" to="0 0" dur="0.5s" begin="0.8999999999999999s" fill="freeze"/>
    <rect x="62.0" y="526" width="316" height="6" rx="2" fill="#001f26" opacity="0.18" filter="url(#shadow-blur)"/>
    <path d="M 380.0 429.0 L 386.0 421.0 L 386.0 516.0 L 380.0 524.0 Z" fill="#005466" opacity="0.7"/>
    <path d="M 66.0 429.0 L 378.0 429.0 L 384.0 421.0 L 68.0 421.0 Z" fill="#00ffff" opacity="0.85"/>
    <line x1="66.0" y1="429" x2="374.0" y2="429" stroke="#00D4FF" stroke-width="1.2" opacity="0.9" filter="url(#edge-glow)"/>
    <rect x="60.0" y="429.0" width="320" height="95" rx="5" ry="5" fill="#0D1832" stroke="#00D4FF" stroke-width="1" opacity="0.92"/>
    <rect x="62.0" y="431.0" width="316" height="91" rx="4" ry="4" fill="#0A1020" opacity="0.55"/>
    <text x="220" y="451" text-anchor="middle" fill="#00D4FF" font-size="12" font-weight="bold" font-family="monospace" filter="url(#text-glow)">Big Data &amp; Ecosystem</text>
    <rect x="80.0" y="461.0" width="90" height="16" rx="6" ry="6" fill="#00D4FF" opacity="0.10" stroke="#00D4FF" stroke-width="0.5" stroke-opacity="0.3">      <animate attributeName="opacity" values="0.10;0.18;0.10" dur="3s" begin="0.8999999999999999s" repeatCount="indefinite"/>    </rect>
    <text x="125.0" y="472.0" text-anchor="middle" fill="#8da9c4" font-size="7.5" font-family="monospace">Apache Spark</text>
    <rect x="175.0" y="461.0" width="90" height="16" rx="6" ry="6" fill="#00D4FF" opacity="0.10" stroke="#00D4FF" stroke-width="0.5" stroke-opacity="0.3">      <animate attributeName="opacity" values="0.10;0.18;0.10" dur="3s" begin="0.96s" repeatCount="indefinite"/>    </rect>
    <text x="220.0" y="472.0" text-anchor="middle" fill="#8da9c4" font-size="7.5" font-family="monospace">Xarray</text>
    <rect x="270.0" y="461.0" width="90" height="16" rx="6" ry="6" fill="#00D4FF" opacity="0.10" stroke="#00D4FF" stroke-width="0.5" stroke-opacity="0.3">      <animate attributeName="opacity" values="0.10;0.18;0.10" dur="3s" begin="1.02s" repeatCount="indefinite"/>    </rect>
    <text x="315.0" y="472.0" text-anchor="middle" fill="#8da9c4" font-size="7.5" font-family="monospace">Zarr</text>
    <rect x="80.0" y="480.0" width="90" height="16" rx="6" ry="6" fill="#00D4FF" opacity="0.10" stroke="#00D4FF" stroke-width="0.5" stroke-opacity="0.3">      <animate attributeName="opacity" values="0.10;0.18;0.10" dur="3s" begin="1.0799999999999998s" repeatCount="indefinite"/>    </rect>
    <text x="125.0" y="491.0" text-anchor="middle" fill="#8da9c4" font-size="7.5" font-family="monospace">Icechunk</text>
    <rect x="175.0" y="480.0" width="90" height="16" rx="6" ry="6" fill="#00D4FF" opacity="0.10" stroke="#00D4FF" stroke-width="0.5" stroke-opacity="0.3">      <animate attributeName="opacity" values="0.10;0.18;0.10" dur="3s" begin="1.14s" repeatCount="indefinite"/>    </rect>
    <text x="220.0" y="491.0" text-anchor="middle" fill="#8da9c4" font-size="7.5" font-family="monospace">Docker</text>
    <rect x="270.0" y="480.0" width="90" height="16" rx="6" ry="6" fill="#00D4FF" opacity="0.10" stroke="#00D4FF" stroke-width="0.5" stroke-opacity="0.3">      <animate attributeName="opacity" values="0.10;0.18;0.10" dur="3s" begin="1.2s" repeatCount="indefinite"/>    </rect>
    <text x="315.0" y="491.0" text-anchor="middle" fill="#8da9c4" font-size="7.5" font-family="monospace">Git</text>
    <rect x="80.0" y="499.0" width="90" height="16" rx="6" ry="6" fill="#00D4FF" opacity="0.10" stroke="#00D4FF" stroke-width="0.5" stroke-opacity="0.3">      <animate attributeName="opacity" values="0.10;0.18;0.10" dur="3s" begin="1.2599999999999998s" repeatCount="indefinite"/>    </rect>
    <text x="125.0" y="510.0" text-anchor="middle" fill="#8da9c4" font-size="7.5" font-family="monospace">Azure DevOps</text>
    <rect x="175.0" y="499.0" width="90" height="16" rx="6" ry="6" fill="#00D4FF" opacity="0.10" stroke="#00D4FF" stroke-width="0.5" stroke-opacity="0.3">      <animate attributeName="opacity" values="0.10;0.18;0.10" dur="3s" begin="1.3199999999999998s" repeatCount="indefinite"/>    </rect>
    <text x="220.0" y="510.0" text-anchor="middle" fill="#8da9c4" font-size="7.5" font-family="monospace">Linux</text>
    <rect x="60.0" y="429.0" width="320" height="1.5" fill="#00D4FF" opacity="0.12"><animateTransform attributeName="transform" type="translate" from="0 0" to="0 95" dur="3.5s" begin="1.2s" repeatCount="indefinite"/></rect>
  </g>

  <!-- Radar -->
  <g filter="url(#radar-glow)">
    <circle cx="645" cy="265" r="35" fill="none" stroke="#162340" stroke-width="0.6" stroke-dasharray="3,6" opacity="0.25"/>
    <circle cx="645" cy="265" r="69" fill="none" stroke="#162340" stroke-width="0.6" stroke-dasharray="3,6" opacity="0.25"/>
    <circle cx="645" cy="265" r="105" fill="none" stroke="#162340" stroke-width="0.6" stroke-dasharray="3,6" opacity="0.25"/>
    <line x1="645" y1="265" x2="645.0" y2="160.0" stroke="#162340" stroke-width="0.5" opacity="0.3"/>
    <line x1="645" y1="265" x2="750.0" y2="265.0" stroke="#162340" stroke-width="0.5" opacity="0.3"/>
    <line x1="645" y1="265" x2="645.0" y2="370.0" stroke="#162340" stroke-width="0.5" opacity="0.3"/>
    <line x1="645" y1="265" x2="540.0" y2="265.0" stroke="#162340" stroke-width="0.5" opacity="0.3"/>
    <path d="M 645 265 L 645.0 160.0 A 105 105 0 0 1 750.0 265.0 Z" fill="#00E5FF" fill-opacity="0.06"/>
    <path d="M 645 265 L 750.0 265.0 A 105 105 0 0 1 645.0 370.0 Z" fill="#FF7A30" fill-opacity="0.06"/>
    <path d="M 645 265 L 645.0 370.0 A 105 105 0 0 1 540.0 265.0 Z" fill="#29FF87" fill-opacity="0.06"/>
    <path d="M 645 265 L 540.0 265.0 A 105 105 0 0 1 645.0 160.0 Z" fill="#00D4FF" fill-opacity="0.06"/>
    <g>      <path d="M 645 265 L 617.8 163.6 A 105 105 0 0 1 645.0 160.0 Z" fill="#00E5FF" fill-opacity="0.06"/>      <line x1="645" y1="265" x2="645" y2="160" stroke="#00E5FF" stroke-width="1.2" opacity="0.7"/>      <circle cx="645" cy="160" r="2.5" fill="#00E5FF" opacity="0.8">        <animate attributeName="opacity" values="0.5;1;0.5" dur="1.5s" repeatCount="indefinite"/>      </circle>      <animateTransform attributeName="transform" type="rotate" from="0 645 265" to="360 645 265" dur="10s" repeatCount="indefinite"/>    </g>
    <circle cx="645.0" cy="132.0" r="3" fill="#00E5FF" opacity="0.6">      <animate attributeName="opacity" values="0.4;1;0.4" dur="2.5s" begin="0.0s" repeatCount="indefinite"/>    </circle>
    <text x="645.0" y="142.0" fill="#00E5FF" font-size="9" font-family="monospace" text-anchor="middle" dominant-baseline="middle">Languages</text>
    <text x="645.0" y="155.0" fill="#5a7088" font-size="8" font-family="monospace" text-anchor="middle" dominant-baseline="middle">(5)</text>
    <circle cx="768.0" cy="255.0" r="3" fill="#FF7A30" opacity="0.6">      <animate attributeName="opacity" values="0.4;1;0.4" dur="2.5s" begin="0.5s" repeatCount="indefinite"/>    </circle>
    <text x="768.0" y="265.0" fill="#FF7A30" font-size="9" font-family="monospace" text-anchor="middle" dominant-baseline="middle">Cloud &amp; Data Platforms</text>
    <text x="768.0" y="278.0" fill="#5a7088" font-size="8" font-family="monospace" text-anchor="middle" dominant-baseline="middle">(3)</text>
    <circle cx="645.0" cy="378.0" r="3" fill="#29FF87" opacity="0.6">      <animate attributeName="opacity" values="0.4;1;0.4" dur="2.5s" begin="1.0s" repeatCount="indefinite"/>    </circle>
    <text x="645.0" y="388.0" fill="#29FF87" font-size="9" font-family="monospace" text-anchor="middle" dominant-baseline="middle">Databases &amp; Modeling</text>
    <text x="645.0" y="401.0" fill="#5a7088" font-size="8" font-family="monospace" text-anchor="middle" dominant-baseline="middle">(6)</text>
    <circle cx="522.0" cy="255.0" r="3" fill="#00D4FF" opacity="0.6">      <animate attributeName="opacity" values="0.4;1;0.4" dur="2.5s" begin="1.5s" repeatCount="indefinite"/>    </circle>
    <text x="522.0" y="265.0" fill="#00D4FF" font-size="9" font-family="monospace" text-anchor="middle" dominant-baseline="middle">Big Data &amp; Ecosystem</text>
    <text x="522.0" y="278.0" fill="#5a7088" font-size="8" font-family="monospace" text-anchor="middle" dominant-baseline="middle">(8)</text>
    <circle cx="645.0" cy="207.2" r="1.2" fill="#00E5FF" opacity="0.5">      <animate attributeName="opacity" values="0.2;0.8;0.2" dur="2s" begin="0.0s" repeatCount="indefinite"/>    </circle>
    <circle cx="695.0" cy="236.1" r="1.2" fill="#FF7A30" opacity="0.5">      <animate attributeName="opacity" values="0.2;0.8;0.2" dur="2s" begin="0.4s" repeatCount="indefinite"/>    </circle>
    <circle cx="695.0" cy="293.9" r="1.2" fill="#29FF87" opacity="0.5">      <animate attributeName="opacity" values="0.2;0.8;0.2" dur="2s" begin="0.8s" repeatCount="indefinite"/>    </circle>
    <circle cx="645.0" cy="322.8" r="1.2" fill="#00D4FF" opacity="0.5">      <animate attributeName="opacity" values="0.2;0.8;0.2" dur="2s" begin="1.2000000000000002s" repeatCount="indefinite"/>    </circle>
    <circle cx="595.0" cy="293.9" r="1.2" fill="#00E5FF" opacity="0.5">      <animate attributeName="opacity" values="0.2;0.8;0.2" dur="2s" begin="1.6s" repeatCount="indefinite"/>    </circle>
    <circle cx="595.0" cy="236.1" r="1.2" fill="#FF7A30" opacity="0.5">      <animate attributeName="opacity" values="0.2;0.8;0.2" dur="2s" begin="2.0s" repeatCount="indefinite"/>    </circle>
  </g>
</svg>